<mxfile host="app.diagrams.net" modified="2022-05-17T12:29:20.711Z" agent="5.0 (Macintosh; Intel Mac OS X 10_13_6) AppleWebKit/537.36 (KHTML, like Gecko) Chrome/100.0.4896.127 Safari/537.36" etag="WJs1hqAaVZP2Bcf0PAbK" version="17.1.2" type="github">
  <diagram name="Page-1" id="74e2e168-ea6b-b213-b513-2b3c1d86103e">
    <mxGraphModel dx="1123" dy="734" grid="1" gridSize="10" guides="1" tooltips="1" connect="1" arrows="1" fold="1" page="1" pageScale="1" pageWidth="1100" pageHeight="850" background="none" math="0" shadow="0">
      <root>
        <mxCell id="0" />
        <mxCell id="1" parent="0" />
        <mxCell id="77e6c97f196da883-1" value="process" style="swimlane;html=1;childLayout=stackLayout;startSize=20;rounded=0;shadow=0;labelBackgroundColor=none;strokeWidth=1;fontFamily=Verdana;fontSize=8;align=center;" parent="1" vertex="1">
          <mxGeometry x="67" y="40" width="850" height="750" as="geometry" />
        </mxCell>
        <mxCell id="77e6c97f196da883-2" value="前端用户" style="swimlane;html=1;startSize=20;" parent="77e6c97f196da883-1" vertex="1">
          <mxGeometry y="20" width="160" height="730" as="geometry" />
        </mxCell>
        <mxCell id="YFx8OhK5E9EpS-ir4OQ3-15" value="" style="shape=actor;whiteSpace=wrap;html=1;" vertex="1" parent="77e6c97f196da883-2">
          <mxGeometry x="60" y="57" width="40" height="60" as="geometry" />
        </mxCell>
        <mxCell id="YFx8OhK5E9EpS-ir4OQ3-50" value="" style="shape=actor;whiteSpace=wrap;html=1;" vertex="1" parent="77e6c97f196da883-2">
          <mxGeometry x="42" y="469" width="47" height="60" as="geometry" />
        </mxCell>
        <mxCell id="77e6c97f196da883-3" value="Gateway" style="swimlane;html=1;startSize=20;" parent="77e6c97f196da883-1" vertex="1">
          <mxGeometry x="160" y="20" width="160" height="730" as="geometry" />
        </mxCell>
        <mxCell id="YFx8OhK5E9EpS-ir4OQ3-8" value="" style="edgeStyle=orthogonalEdgeStyle;rounded=0;orthogonalLoop=1;jettySize=auto;html=1;" edge="1" parent="77e6c97f196da883-3" source="77e6c97f196da883-11" target="YFx8OhK5E9EpS-ir4OQ3-6">
          <mxGeometry relative="1" as="geometry" />
        </mxCell>
        <mxCell id="77e6c97f196da883-11" value="获取受控资源" style="rounded=1;whiteSpace=wrap;html=1;shadow=0;labelBackgroundColor=none;strokeWidth=1;fontFamily=Verdana;fontSize=8;align=center;" parent="77e6c97f196da883-3" vertex="1">
          <mxGeometry x="30" y="57" width="100" height="60" as="geometry" />
        </mxCell>
        <mxCell id="YFx8OhK5E9EpS-ir4OQ3-6" value="判定是否受控" style="rhombus;whiteSpace=wrap;html=1;rounded=0;shadow=0;labelBackgroundColor=none;strokeWidth=1;fontFamily=Verdana;fontSize=8;align=center;" vertex="1" parent="77e6c97f196da883-3">
          <mxGeometry x="29" y="147" width="100" height="60" as="geometry" />
        </mxCell>
        <mxCell id="YFx8OhK5E9EpS-ir4OQ3-31" value="判定用户是否&lt;br&gt;有访问权限" style="rhombus;whiteSpace=wrap;html=1;rounded=0;shadow=0;labelBackgroundColor=none;strokeWidth=1;fontFamily=Verdana;fontSize=8;align=center;" vertex="1" parent="77e6c97f196da883-3">
          <mxGeometry x="30" y="357" width="100" height="60" as="geometry" />
        </mxCell>
        <mxCell id="YFx8OhK5E9EpS-ir4OQ3-38" value="HTTP 响应" style="whiteSpace=wrap;html=1;fontSize=8;fontFamily=Verdana;rounded=0;shadow=0;labelBackgroundColor=none;strokeWidth=1;" vertex="1" parent="77e6c97f196da883-3">
          <mxGeometry x="20" y="467" width="120" height="60" as="geometry" />
        </mxCell>
        <mxCell id="YFx8OhK5E9EpS-ir4OQ3-39" value="" style="edgeStyle=orthogonalEdgeStyle;rounded=0;orthogonalLoop=1;jettySize=auto;html=1;" edge="1" parent="77e6c97f196da883-3" source="YFx8OhK5E9EpS-ir4OQ3-31" target="YFx8OhK5E9EpS-ir4OQ3-38">
          <mxGeometry relative="1" as="geometry" />
        </mxCell>
        <mxCell id="YFx8OhK5E9EpS-ir4OQ3-49" value="否，权限不足" style="text;html=1;align=center;verticalAlign=middle;resizable=0;points=[];autosize=1;strokeColor=none;fillColor=none;" vertex="1" parent="77e6c97f196da883-3">
          <mxGeometry x="77" y="424" width="90" height="20" as="geometry" />
        </mxCell>
        <mxCell id="77e6c97f196da883-4" value="system-service" style="swimlane;html=1;startSize=20;" parent="77e6c97f196da883-1" vertex="1">
          <mxGeometry x="320" y="20" width="160" height="730" as="geometry" />
        </mxCell>
        <mxCell id="YFx8OhK5E9EpS-ir4OQ3-40" value="用户资源" style="ellipse;whiteSpace=wrap;html=1;fontSize=8;fontFamily=Verdana;rounded=0;shadow=0;labelBackgroundColor=none;strokeWidth=1;" vertex="1" parent="77e6c97f196da883-4">
          <mxGeometry x="37" y="257" width="100" height="50" as="geometry" />
        </mxCell>
        <mxCell id="YFx8OhK5E9EpS-ir4OQ3-42" value="受控资源" style="ellipse;whiteSpace=wrap;html=1;fontSize=8;fontFamily=Verdana;rounded=0;shadow=0;labelBackgroundColor=none;strokeWidth=1;" vertex="1" parent="77e6c97f196da883-4">
          <mxGeometry x="38" y="68" width="100" height="50" as="geometry" />
        </mxCell>
        <mxCell id="YFx8OhK5E9EpS-ir4OQ3-43" style="edgeStyle=orthogonalEdgeStyle;rounded=0;orthogonalLoop=1;jettySize=auto;html=1;exitX=0;exitY=0.75;exitDx=0;exitDy=0;entryX=1;entryY=0.75;entryDx=0;entryDy=0;" edge="1" parent="77e6c97f196da883-4">
          <mxGeometry relative="1" as="geometry">
            <mxPoint x="45" y="298" as="sourcePoint" />
            <mxPoint x="-20" y="298" as="targetPoint" />
          </mxGeometry>
        </mxCell>
        <mxCell id="77e6c97f196da883-5" value="biz-service" style="swimlane;html=1;startSize=20;" parent="77e6c97f196da883-1" vertex="1">
          <mxGeometry x="480" y="20" width="160" height="730" as="geometry" />
        </mxCell>
        <mxCell id="YFx8OhK5E9EpS-ir4OQ3-17" value="业务处理" style="whiteSpace=wrap;html=1;fontSize=8;fontFamily=Verdana;rounded=0;shadow=0;labelBackgroundColor=none;strokeWidth=1;" vertex="1" parent="77e6c97f196da883-5">
          <mxGeometry x="20" y="147" width="120" height="60" as="geometry" />
        </mxCell>
        <mxCell id="YFx8OhK5E9EpS-ir4OQ3-44" value="业务处理" style="whiteSpace=wrap;html=1;fontSize=8;fontFamily=Verdana;rounded=0;shadow=0;labelBackgroundColor=none;strokeWidth=1;" vertex="1" parent="77e6c97f196da883-5">
          <mxGeometry x="20" y="357" width="120" height="60" as="geometry" />
        </mxCell>
        <mxCell id="YFx8OhK5E9EpS-ir4OQ3-18" value="" style="edgeStyle=orthogonalEdgeStyle;rounded=0;orthogonalLoop=1;jettySize=auto;html=1;" edge="1" parent="77e6c97f196da883-1" source="YFx8OhK5E9EpS-ir4OQ3-6" target="YFx8OhK5E9EpS-ir4OQ3-17">
          <mxGeometry relative="1" as="geometry" />
        </mxCell>
        <mxCell id="YFx8OhK5E9EpS-ir4OQ3-45" style="edgeStyle=orthogonalEdgeStyle;rounded=0;orthogonalLoop=1;jettySize=auto;html=1;entryX=0;entryY=0.5;entryDx=0;entryDy=0;" edge="1" parent="77e6c97f196da883-1" source="YFx8OhK5E9EpS-ir4OQ3-31" target="YFx8OhK5E9EpS-ir4OQ3-44">
          <mxGeometry relative="1" as="geometry" />
        </mxCell>
        <mxCell id="YFx8OhK5E9EpS-ir4OQ3-85" style="edgeStyle=orthogonalEdgeStyle;rounded=0;orthogonalLoop=1;jettySize=auto;html=1;exitX=0.5;exitY=1;exitDx=0;exitDy=0;entryX=1;entryY=0.25;entryDx=0;entryDy=0;dashed=1；" edge="1" parent="77e6c97f196da883-1" source="YFx8OhK5E9EpS-ir4OQ3-44" target="YFx8OhK5E9EpS-ir4OQ3-38">
          <mxGeometry relative="1" as="geometry">
            <mxPoint x="559.6153846153848" y="530" as="targetPoint" />
          </mxGeometry>
        </mxCell>
        <mxCell id="YFx8OhK5E9EpS-ir4OQ3-9" style="edgeStyle=orthogonalEdgeStyle;rounded=0;orthogonalLoop=1;jettySize=auto;html=1;exitX=0;exitY=0.75;exitDx=0;exitDy=0;entryX=1;entryY=0.75;entryDx=0;entryDy=0;" edge="1" parent="1" target="77e6c97f196da883-11">
          <mxGeometry relative="1" as="geometry">
            <mxPoint x="425" y="162" as="sourcePoint" />
          </mxGeometry>
        </mxCell>
        <mxCell id="YFx8OhK5E9EpS-ir4OQ3-3" value="" style="edgeStyle=orthogonalEdgeStyle;rounded=0;orthogonalLoop=1;jettySize=auto;html=1;" edge="1" parent="1" source="77e6c97f196da883-11">
          <mxGeometry relative="1" as="geometry">
            <mxPoint x="425" y="147" as="targetPoint" />
          </mxGeometry>
        </mxCell>
        <mxCell id="YFx8OhK5E9EpS-ir4OQ3-25" value="" style="edgeStyle=orthogonalEdgeStyle;rounded=0;orthogonalLoop=1;jettySize=auto;html=1;" edge="1" parent="1" source="YFx8OhK5E9EpS-ir4OQ3-10">
          <mxGeometry relative="1" as="geometry">
            <mxPoint x="420" y="342" as="targetPoint" />
          </mxGeometry>
        </mxCell>
        <mxCell id="YFx8OhK5E9EpS-ir4OQ3-32" style="edgeStyle=orthogonalEdgeStyle;rounded=0;orthogonalLoop=1;jettySize=auto;html=1;exitX=0.5;exitY=1;exitDx=0;exitDy=0;entryX=0.5;entryY=0;entryDx=0;entryDy=0;" edge="1" parent="1" source="YFx8OhK5E9EpS-ir4OQ3-10" target="YFx8OhK5E9EpS-ir4OQ3-31">
          <mxGeometry relative="1" as="geometry" />
        </mxCell>
        <mxCell id="YFx8OhK5E9EpS-ir4OQ3-10" value="获取用户资源" style="whiteSpace=wrap;html=1;fontSize=8;fontFamily=Verdana;rounded=0;shadow=0;labelBackgroundColor=none;strokeWidth=1;" vertex="1" parent="1">
          <mxGeometry x="247" y="312" width="120" height="60" as="geometry" />
        </mxCell>
        <mxCell id="YFx8OhK5E9EpS-ir4OQ3-11" value="" style="edgeStyle=orthogonalEdgeStyle;rounded=0;orthogonalLoop=1;jettySize=auto;html=1;" edge="1" parent="1" source="YFx8OhK5E9EpS-ir4OQ3-6" target="YFx8OhK5E9EpS-ir4OQ3-10">
          <mxGeometry relative="1" as="geometry" />
        </mxCell>
        <mxCell id="YFx8OhK5E9EpS-ir4OQ3-16" value="业务请求" style="text;html=1;align=center;verticalAlign=middle;resizable=0;points=[];autosize=1;strokeColor=none;fillColor=none;" vertex="1" parent="1">
          <mxGeometry x="171" y="122" width="60" height="20" as="geometry" />
        </mxCell>
        <mxCell id="YFx8OhK5E9EpS-ir4OQ3-19" value="否" style="text;html=1;align=center;verticalAlign=middle;resizable=0;points=[];autosize=1;strokeColor=none;fillColor=none;" vertex="1" parent="1">
          <mxGeometry x="355" y="212" width="30" height="20" as="geometry" />
        </mxCell>
        <mxCell id="YFx8OhK5E9EpS-ir4OQ3-21" value="是" style="text;html=1;align=center;verticalAlign=middle;resizable=0;points=[];autosize=1;strokeColor=none;fillColor=none;" vertex="1" parent="1">
          <mxGeometry x="316" y="267" width="30" height="20" as="geometry" />
        </mxCell>
        <mxCell id="YFx8OhK5E9EpS-ir4OQ3-47" value="是" style="text;html=1;align=center;verticalAlign=middle;resizable=0;points=[];autosize=1;strokeColor=none;fillColor=none;" vertex="1" parent="1">
          <mxGeometry x="355" y="417" width="30" height="20" as="geometry" />
        </mxCell>
        <mxCell id="YFx8OhK5E9EpS-ir4OQ3-52" value="业务报文" style="text;html=1;align=center;verticalAlign=middle;resizable=0;points=[];autosize=1;strokeColor=none;fillColor=none;" vertex="1" parent="1">
          <mxGeometry x="156" y="527" width="60" height="20" as="geometry" />
        </mxCell>
        <mxCell id="YFx8OhK5E9EpS-ir4OQ3-54" style="edgeStyle=orthogonalEdgeStyle;rounded=0;orthogonalLoop=1;jettySize=auto;html=1;exitX=0;exitY=0.5;exitDx=0;exitDy=0;" edge="1" parent="1" source="YFx8OhK5E9EpS-ir4OQ3-38">
          <mxGeometry relative="1" as="geometry">
            <mxPoint x="180" y="557.5384615384614" as="targetPoint" />
          </mxGeometry>
        </mxCell>
        <mxCell id="77e6c97f196da883-26" style="edgeStyle=orthogonalEdgeStyle;rounded=1;html=1;labelBackgroundColor=none;startArrow=none;startFill=0;startSize=5;endArrow=classicThin;endFill=1;endSize=5;jettySize=auto;orthogonalLoop=1;strokeWidth=1;fontFamily=Verdana;fontSize=8;exitX=0.196;exitY=1.196;exitDx=0;exitDy=0;exitPerimeter=0;" parent="1" source="YFx8OhK5E9EpS-ir4OQ3-16" target="77e6c97f196da883-11" edge="1">
          <mxGeometry relative="1" as="geometry">
            <mxPoint x="170" y="147" as="sourcePoint" />
          </mxGeometry>
        </mxCell>
        <mxCell id="YFx8OhK5E9EpS-ir4OQ3-84" style="edgeStyle=orthogonalEdgeStyle;rounded=0;orthogonalLoop=1;jettySize=auto;html=1;exitX=1;exitY=0.5;exitDx=0;exitDy=0;dashed=1；" edge="1" parent="1" source="YFx8OhK5E9EpS-ir4OQ3-17">
          <mxGeometry relative="1" as="geometry">
            <mxPoint x="370" y="560" as="targetPoint" />
            <Array as="points">
              <mxPoint x="830" y="237" />
              <mxPoint x="830" y="560" />
            </Array>
          </mxGeometry>
        </mxCell>
      </root>
    </mxGraphModel>
  </diagram>
</mxfile>
